<svg width="240" height="240" viewBox="0 0 240 240" fill="none" xmlns="http://www.w3.org/2000/svg">
<mask id="mask0_754_548" style="mask-type:luminance" maskUnits="userSpaceOnUse" x="0" y="0" width="240" height="240">
<path d="M240 0H0V240H240V0Z" fill="white"/>
</mask>
<g mask="url(#mask0_754_548)">
<path d="M120 238.71C186.274 238.71 240 185.273 240 119.355C240 53.437 186.274 0 120 0C53.7258 0 0 53.437 0 119.355C0 185.273 53.7258 238.71 120 238.71Z" fill="black"/>
<path fill-rule="evenodd" clip-rule="evenodd" d="M48.75 80.6606V159.375L72.4001 159.233V127.303C75.2126 127.303 77.856 127.416 80.2684 129.1C82.1047 130.794 83.5642 132.876 84.5475 135.202L97.2008 159.233H123.75C118.484 148.753 114.265 135.498 105.207 127.539C103.296 126.281 101.22 125.309 99.0412 124.654C101.952 124.042 104.759 122.99 107.37 121.531C113.946 117.516 117.718 110.178 117.538 102.515C117.674 97.9979 116.436 93.5497 113.995 89.7903C108.471 81.3311 97.2514 80.3298 87.9986 80.6606H48.75ZM82.4771 112.543H72.4924V96.3656H82.8911C88.0526 95.8477 94.4302 98.1577 94.0721 104.265C94.3121 110.858 87.6176 112.173 82.4771 112.543Z" fill="#FFB749"/>
<path d="M148.038 131.584L123.75 133C124.223 140.127 127.508 146.85 132.989 151.908C138.419 156.871 148.153 159.353 162.193 159.353C173.836 159.684 187.147 156.805 194.329 146.838C197.223 142.85 198.762 138.16 198.749 133.365C198.831 124.443 192.877 117.111 184.892 113.68C177.237 110.537 169.199 108.253 160.951 106.875C157.915 106.538 154.998 105.586 152.409 104.089C149.64 102.224 150.293 98.3521 152.756 96.5986C159.782 91.9527 171.112 95.8295 171.978 104.637L196.067 103.358C195.639 96.6301 191.942 90.2044 186.134 86.0937C178.87 82.0827 170.45 80.2028 161.995 80.7046C155.06 80.4477 148.139 81.4568 141.631 83.6731C133.531 86.6719 126.859 93.9901 126.879 102.947C126.724 108.516 129.434 114.033 134.081 117.608C141.17 122.339 149.372 125.468 158.021 126.743C162.687 127.364 167.148 128.923 171.084 131.31C174.704 133.991 174.678 139.376 170.985 142.089C166.904 144.95 160.888 145.281 156.307 143.426C151.394 141.435 148.518 136.794 148.038 131.584Z" fill="#FFB749"/>
</g>
</svg>
